# xmcd
#
# Track frame offsets: 
#        150
#        13511
#        28221
#        40099
#        51550
#        62041
#        70646
#        81217
#        90169
#        104891
#        115736
#        128887
#        141079
#        155456
#
# Disc length: 2212 seconds
#
# Revision: 1
# Processed by: cddbd v1.5.2PL0 Copyright (c) Steve Scherf et al.
# Submitted via: ExactAudioCopy v0.95b4
#
DISCID=bb08a20e
DTITLE=Various Artist - Bluegrass Originals [CD2]
DYEAR=1900
DGENRE=Bluegrass
TTITLE0=The Stanley Brothers_I'm A Man Of Constant Sorrow
TTITLE1=Jimmy Martin and The Osborne Brothers_Across The Sea Blues
TTITLE2=Flatt and Scruggs_My Cabin In Caroline
TTITLE3=Reno and Smiley_I'm Using My Bible For A Roadmap
TTITLE4=The Osborne Brothers_Y'all Come
TTITLE5=The Sauceman Brothers_Hallelujah We Shall Rise
TTITLE6=The Lonesome Pine Fiddlers_Nobody Cares (Not Even You)
TTITLE7=Brown's Ferry Four_Over In The Glory Land
TTITLE8=Frank Hunter and His Black Mountain Boys_Tennesse Boy
TTITLE9=Jim and Jesse_Are You Missing Me
TTITLE10=Mac Wiseman_Dreaming Of A Little Cabin
TTITLE11=Sonny Osborne_Get In Line Brother
TTITLE12=The Lilly Brothers_They Sleep Together Now At Rest
TTITLE13=Bill Monroe_Bluegrass Breakdown
EXTD=
EXTT0=
EXTT1=
EXTT2=
EXTT3=
EXTT4=
EXTT5=
EXTT6=
EXTT7=
EXTT8=
EXTT9=
EXTT10=
EXTT11=
EXTT12=
EXTT13=
PLAYORDER=
